<?xml version="1.0" encoding="UTF-8"?>
<svg id="Capa_1" xmlns="http://www.w3.org/2000/svg" viewBox="0 0 201 205.08">
  <defs>
    <style>
      .cls-1 {
        fill: #ec7509;
      }

      .cls-2 {
        fill: #f9ee78;
      }
    </style>
  </defs>
  <path class="cls-1" d="M160.41,99.99s30.05,7.37,17.55,41.04c-9.28,24.98-44.73,10.96-44.73,10.96,0,0,6.7,33.5-27.02,34.04-37.25.59-37.06-38.15-37.06-38.15,0,0-42.61,4.6-48.49-28.49-6.79-38.21,41.24-49.77,41.24-49.77,0,0-1.98-44.52,25.03-49.93,27.01-5.41,35.65,25.07,35.65,25.07,0,0,21.99-25.78,44.73-4.72,27.4,25.38-6.88,59.94-6.88,59.94l-.02.02Z"/>
  <path class="cls-2" d="M107,124.04c11.6,0,21-9.4,21-21s-9.4-21-21-21-21,9.4-21,21,9.4,21,21,21Z"/>
</svg>