<?xml version="1.0" encoding="UTF-8"?>
<svg id="Capa_1" xmlns="http://www.w3.org/2000/svg" viewBox="0 0 201 205.08">
  <defs>
    <style>
      .cls-1 {
        fill: #1c2545;
      }

      .cls-2 {
        fill: #fcfbf3;
      }
    </style>
  </defs>
  <path class="cls-1" d="M131.06,102.85s14.91,4.43,7.77,20.83c-5.3,12.16-22.75,4.28-22.75,4.28,0,0,2.51,16.8-14.45,16.2-18.73-.67-17.65-19.9-17.65-19.9,0,0-21.53,1.18-23.64-15.4-2.43-19.14,21.99-23.64,21.99-23.64,0,0,.14-22.15,13.85-24.13,13.71-1.99,17.27,13.37,17.27,13.37,0,0,11.71-12.23,22.59-1.19,13.12,13.31-4.99,29.57-4.99,29.57h0Z"/>
  <path class="cls-2" d="M103.61,113.41c5.83.3,10.79-4.12,11.09-9.88s-4.19-10.67-10.01-10.97c-5.83-.3-10.79,4.12-11.09,9.88-.3,5.76,4.19,10.67,10.01,10.97Z"/>
</svg>