<?xml version="1.0" encoding="UTF-8"?>
<svg id="Capa_1" xmlns="http://www.w3.org/2000/svg" viewBox="0 0 201 192.97">
  <defs>
    <style>
      .cls-1 {
        fill: #f9ee78;
      }

      .cls-2 {
        fill: #a7b5fe;
      }
    </style>
  </defs>
  <path class="cls-2" d="M118.1,66.44s27.23-37.59,47.28-11.39c22.2,29-21.18,48.31-21.18,48.31,0,0,30.53,27.55,9.26,45.77-21.25,18.25-39.56-3.31-39.56-3.31,0,0-6.18,31.62-31.51,23.37-26.79-8.73-21.72-41.88-21.72-41.88,0,0-27.87-.23-31.18-29.43-3.49-30.72,41.63-26.03,41.63-26.03,0,0-14.66-45.17,21.07-49.29,29.43-3.41,25.91,43.85,25.91,43.85v.02Z"/>
  <path class="cls-1" d="M90.25,103.03c.79,6.83,6.97,11.73,13.8,10.94,6.83-.79,11.73-6.97,10.94-13.8s-6.97-11.73-13.8-10.94c-6.83.79-11.73,6.97-10.94,13.8Z"/>
</svg>