<?xml version="1.0" encoding="UTF-8"?>
<svg id="Capa_1" xmlns="http://www.w3.org/2000/svg" viewBox="0 0 201 192.97">
  <defs>
    <style>
      .cls-1 {
        fill: #1c2545;
      }

      .cls-2 {
        fill: #fcfbf3;
      }
    </style>
  </defs>
  <path class="cls-1" d="M107.73,81.59s10.57-18.41,21.1-7.59c11.65,11.97-7.25,22.94-7.25,22.94,0,0,15.4,10.88,6.57,20.23-8.81,9.35-18.3.54-18.3.54,0,0-1.22,14.62-13.26,12.2-12.73-2.57-12.09-17.82-12.09-17.82,0,0-12.79,1.33-15.79-11.7-3.16-13.71,17.76-13.92,17.76-13.92,0,0-9.02-19.67,7.15-23.38,13.32-3.06,14.11,18.5,14.11,18.5h0Z"/>
  <path class="cls-2" d="M96.83,99.57c.71,3.05,3.79,4.95,6.88,4.24,3.09-.71,5.02-3.76,4.31-6.81-.71-3.05-3.79-4.95-6.88-4.24-3.09.71-5.02,3.76-4.31,6.81Z"/>
</svg>