<?xml version="1.0" encoding="UTF-8"?>
<svg id="Capa_1" xmlns="http://www.w3.org/2000/svg" viewBox="0 0 235 223.46">
  <defs>
    <style>
      .cls-1 {
        fill: #ec7509;
      }

      .cls-2 {
        fill: #f9ee78;
      }
    </style>
  </defs>
  <path class="cls-2" d="M132.29,142.92s52.72,49.44,68.86,15.78c21.07-43.94-39.93-53.76-39.93-53.76,0,0,31.41-42.24,2.85-58.64-28.54-16.4-43.76,18.79-43.76,18.79,0,0-12.78-46.83-50.65-26.95-33.55,17.6-8.29,48.35-8.29,48.35,0,0-36.38,1.24-31.5,25.27,5.79,28.57,40.79,22.88,40.79,22.88,0,0-19.77,34.9,4.36,49.64,42.37,25.88,57.27-41.35,57.27-41.35v-.02Z"/>
  <path class="cls-1" d="M98.36,112.8c1.81,8.93,10.72,14.67,19.9,12.81,9.18-1.86,15.15-10.61,13.34-19.55-1.81-8.94-10.72-14.67-19.9-12.81-9.18,1.86-15.15,10.61-13.34,19.55Z"/>
</svg>