<?xml version="1.0" encoding="UTF-8"?>
<svg id="Capa_1" xmlns="http://www.w3.org/2000/svg" viewBox="0 0 235 223.46">
  <defs>
    <style>
      .cls-1 {
        fill: #1c2545;
      }

      .cls-2 {
        fill: #fcfbf3;
      }
    </style>
  </defs>
  <path class="cls-1" d="M125.08,122.69s26.04,18.06,30.79,2.35c6.19-20.51-20.8-20.78-20.8-20.78,0,0,10.77-20.45-2.65-25.72-13.41-5.27-17.66,11.05-17.66,11.05,0,0-8.62-19.55-23.66-8.41-13.33,9.86-.38,21.6-.38,21.6,0,0-15.63,2.93-11.94,13.07,4.39,12.06,19.13,7.28,19.13,7.28,0,0-6.23,16.49,5.17,21.33,20.01,8.49,22-21.76,22-21.76h0Z"/>
  <path class="cls-2" d="M108.43,111.8c1.37,3.77,5.6,5.68,9.44,4.27,3.84-1.41,5.84-5.61,4.47-9.39-1.37-3.77-5.6-5.68-9.44-4.27-3.84,1.41-5.84,5.61-4.47,9.39Z"/>
</svg>