<?xml version="1.0" encoding="UTF-8"?>
<svg id="Capa_2" xmlns="http://www.w3.org/2000/svg" viewBox="0 0 567.08 465.84">
  <defs>
    <style>
      .cls-1 {
        fill: #1c2545;
      }
    </style>
  </defs>
  <g id="Capa_1-2" data-name="Capa_1">
    <g>
      <g>
        <path class="cls-1" d="M463.43,258.66c-29.18,21.64-66.69-63.91-83.02-87.23-15.82-22.59-41.59-78.56-62.42-59.23-25.74,23.89-18.39,121.97-15.44,139.18,4.56,26.6,8.37,130.88,8.37,154.02,0,44.11-4.4,60.44-36.68,60.44-23.06,0-32.27-10.81-32.26-54.92,0-13.44,7.28-123.83,9.2-159.29,1.43-26.35-2-117.8-4.03-155.32-1.55-28.68-1.83-75.84,41.88-76.92,58.58-1.44,69.85,31.74,85.59,54.21,21.24,30.32,45.2,98.19,54.85,85.32,11.98-15.96-18.25-79.66-19.46-110.63-1.29-33.08,5.63-47.78,33.94-47.78,31,0,31.52,22.85,31.05,38.59-.97,32.36-3.06,90.75-2.57,123.13.6,39.4,5.91,85.35-9.01,96.41Z"/>
        <path class="cls-1" d="M345.62,207.18c29.18-21.64,66.69,63.91,83.02,87.23,15.82,22.59,41.59,78.56,62.42,59.23,25.74-23.89,18.39-121.97,15.44-139.18-4.56-26.6-8.37-130.88-8.37-154.02,0-44.11,4.4-60.44,36.68-60.44,23.06,0,32.27,10.81,32.26,54.92,0,13.44-7.28,123.83-9.2,159.29-1.43,26.35,2,117.8,4.03,155.32,1.55,28.68,1.83,75.84-41.88,76.92-58.58,1.44-69.85-31.74-85.59-54.21-21.24-30.32-45.2-98.19-54.85-85.32-11.98,15.96,18.25,79.66,19.46,110.63,1.29,33.08-5.63,47.78-33.94,47.78-31,0-31.52-22.85-31.05-38.59.97-32.36,3.06-90.75,2.57-123.13-.6-39.4-5.91-85.35,9.01-96.41Z"/>
      </g>
      <path class="cls-1" d="M228.52,383.88c-.86-34.7-13.03-57.94-22.79-95.51-6.57-25.29-4.85-74.15-5.6-106.87C211.06,64.1,201.33.52,117.64.52,39.68.52,35.98,92.3,42.07,172.1c3.51,46.26,2.53,93.62-12.82,125.48-13.35,28.31-21.96,66.62-25.59,87.94-3.9,22.92-13.73,79.8,31.75,79.8,59.36,0,66.75-41.19,62.2-90.59-3.52-38.26.39-88.05.39-88.05,0,0,.57-33,22.58-33s24.47,33.47,24.47,33.47c0,0,6.71,52.81-2.38,87.45-7.31,27.85-10.54,87.71,33.07,87.71,46.79,0,52.78-27.11,52.78-78.43ZM98.83,174.53s-3.63-94.92,20.65-94.92c30.94,0,24.48,94.92,24.48,94.92h-45.13Z"/>
    </g>
  </g>
</svg>