<svg width="543" height="663" viewBox="0 0 543 663" fill="none" xmlns="http://www.w3.org/2000/svg">
<path d="M514.205 620.56L398.253 0H325.445C325.445 0 299.014 125.712 269.916 263.738C242.572 251.078 210.844 242.308 175.116 242.308C74.781 242.308 -0.0912464 300.15 8.34632e-05 377.923C8.34632e-05 428.31 17.371 461.122 72.8448 461.122C111.788 461.122 130.675 442.469 130.675 413.146C130.675 392.977 113.103 381.832 113.103 359.69C113.103 327.006 144.027 294.468 214.333 294.468C232.361 294.468 248.235 296.349 262.354 299.711C229.256 456.719 195.446 616.997 195.081 618.13C191.957 627.283 183.281 633.897 173.034 633.897H127.99L127.935 662.982H298.941L298.996 633.897H253.623C241.056 633.897 227.85 624.122 230.444 611.462L289.844 308.901C315.143 319.954 334.176 336.25 351.547 353.624C373.119 375.201 394.362 407.83 407.55 441.884L435.406 600.555V600.61L446.274 663H542.591V633.915H535.266C525.914 633.915 516.525 631.503 514.205 620.56ZM363.31 331.463C347.784 315.934 325.116 295.199 295.982 277.623L339.601 55.3018L395.129 371.309C384.499 355.214 373.32 341.457 363.31 331.445V331.463Z" fill="#1C2545"/>
</svg>
