<?xml version="1.0" encoding="UTF-8"?>
<svg id="Capa_1" xmlns="http://www.w3.org/2000/svg" viewBox="0 0 211 213.18">
  <defs>
    <style>
      .cls-1 {
        fill: #dc146c;
      }

      .cls-2 {
        fill: #ec7509;
      }
    </style>
  </defs>
  <path class="cls-1" d="M62.86,94.98S-1.66,49.84,30.93,25.57c42.56-31.7,66.38,30.69,66.38,30.69,0,0,38.51-42.25,62.31-15.6,23.8,26.65-10.65,50.3-10.65,50.3,0,0,53.03,3.47,39.95,47.78-11.58,39.24-50.09,19.11-50.09,19.11,0,0,6.59,38.74-20.26,38.74-31.93,0-33.43-38.24-33.43-38.24,0,0-33.17,28.36-54.23,6.03-36.99-39.24,31.93-69.41,31.93-69.41h.02Z"/>
  <path class="cls-2" d="M102.5,125.59c10.22,0,18.5-8.51,18.5-19s-8.28-19-18.5-19-18.5,8.51-18.5,19,8.28,19,18.5,19Z"/>
</svg>