<?xml version="1.0" encoding="UTF-8"?>
<svg id="Capa_1" xmlns="http://www.w3.org/2000/svg" viewBox="0 0 211 213.18">
  <defs>
    <style>
      .cls-1 {
        fill: #1c2545;
      }

      .cls-2 {
        fill: #fcfbf3;
      }
    </style>
  </defs>
  <path class="cls-1" d="M86.75,99.81s-28.97-25.07-12.06-35.3c22.09-13.37,30.57,18.12,30.57,18.12,0,0,20.65-18.7,30.85-4.59,10.2,14.11-7.58,23.96-7.58,23.96,0,0,25.45,4.24,16.98,25.17-7.5,18.53-25.12,6.88-25.12,6.88,0,0,1.3,19.16-11.67,17.87-15.42-1.54-14.29-20.21-14.29-20.21,0,0-17.39,12.2-26.48.32-15.96-20.87,18.79-32.23,18.79-32.23h.01Z"/>
  <path class="cls-2" d="M104.41,116.61c4.93.49,9.35-3.25,9.86-8.35s-3.08-9.64-8.01-10.13c-4.94-.49-9.35,3.25-9.86,8.35-.51,5.1,3.08,9.64,8.01,10.13Z"/>
</svg>